<svg height="512" viewBox="0 0 512 512" width="512" xmlns="http://www.w3.org/2000/svg"><path d="m408 328a96.01 96.01 0 0 0 29.66-187.32 160.011 160.011 0 0 0 -292.63-58.64 72.012 72.012 0 0 0 -88.96 66.77 96.007 96.007 0 0 0 47.93 179.19h80v34.8l-58.73 26.1a24 24 0 1 0 2.09 16.58l67.89-30.17a7.994 7.994 0 0 0 4.75-7.31v-40h32v114.8l-58.73 26.1a24 24 0 1 0 2.09 16.58l67.89-30.17a7.994 7.994 0 0 0 4.75-7.31v-120h24v80a7.994 7.994 0 0 0 4.75 7.31l67.89 30.17a24 24 0 1 0 2.09-16.58l-58.73-26.1v-74.8h49v40a7.994 7.994 0 0 0 4.75 7.31l67.89 30.17a24 24 0 1 0 2.09-16.58l-58.73-26.1v-34.8zm-304 80a8 8 0 1 1 8-8 8.011 8.011 0 0 1 -8 8zm48 80a8 8 0 1 1 8-8 8.011 8.011 0 0 1 -8 8zm216-56a8 8 0 1 1 -8 8 8.011 8.011 0 0 1 8-8zm65-40a8 8 0 1 1 -8 8 8.011 8.011 0 0 1 8-8zm-329-80a80.006 80.006 0 0 1 -36.32-151.29 8.02 8.02 0 0 0 4.36-7.28c-.01-.26-.01-.5-.02-.75-.01-.23-.02-.45-.02-.68a56.006 56.006 0 0 1 74.09-53 8 8 0 0 0 9.49-3.53 144.023 144.023 0 0 1 267.04 52.55 7.988 7.988 0 0 0 5.88 6.63 80.012 80.012 0 0 1 -20.5 157.35z"/></svg>