<?xml version="1.0"?>
<svg xmlns="http://www.w3.org/2000/svg" width="512" height="512" viewBox="0 0 128 128"><g><path d="M121.5,4.75H6.5A1.751,1.751,0,0,0,4.75,6.5v115a1.751,1.751,0,0,0,1.75,1.75h115a1.751,1.751,0,0,0,1.75-1.75V6.5A1.751,1.751,0,0,0,121.5,4.75ZM8.25,8.25h111.5V22.442H8.25Zm0,111.5V25.942h111.5V119.75Z"/><path d="M106.005,10.6a4.75,4.75,0,1,0,4.75,4.75A4.756,4.756,0,0,0,106.005,10.6Zm0,6a1.25,1.25,0,1,1,1.25-1.25A1.251,1.251,0,0,1,106.005,16.6Z"/><path d="M91.262,10.6a4.75,4.75,0,1,0,4.75,4.75A4.756,4.756,0,0,0,91.262,10.6Zm0,6a1.25,1.25,0,1,1,1.25-1.25A1.25,1.25,0,0,1,91.262,16.6Z"/><path d="M76.518,10.6a4.75,4.75,0,1,0,4.75,4.75A4.756,4.756,0,0,0,76.518,10.6Zm0,6a1.25,1.25,0,1,1,1.25-1.25A1.251,1.251,0,0,1,76.518,16.6Z"/><path d="M44.5,45.872a4.75,4.75,0,1,0-4.75-4.75A4.756,4.756,0,0,0,44.5,45.872Zm0-6a1.25,1.25,0,1,1-1.25,1.25A1.252,1.252,0,0,1,44.5,39.872Z"/><path d="M58.833,31.442H15.526a1.751,1.751,0,0,0-1.75,1.75V57.526a1.694,1.694,0,0,0,0,.527V69.776a1.751,1.751,0,0,0,1.75,1.75H58.833a1.75,1.75,0,0,0,1.75-1.75V33.192A1.75,1.75,0,0,0,58.833,31.442Zm-1.75,3.5V54.6l-5.42-7.36a1.751,1.751,0,0,0-2.3-.471L37.752,53.588l-4.676-6.35a1.751,1.751,0,0,0-2.3-.471L17.276,54.7V34.942ZM17.276,58.762l13.917-8.178L44.038,68.026H17.276Zm31.109,9.264-8.547-11.6,9.942-5.84,7.3,9.916v7.529Z"/><path d="M112.474,31.442H69.167a1.75,1.75,0,0,0-1.75,1.75v70.616a1.75,1.75,0,0,0,1.75,1.75h43.307a1.751,1.751,0,0,0,1.75-1.75V33.192A1.751,1.751,0,0,0,112.474,31.442Zm-1.75,70.616H70.917V34.942h39.807Z"/><path d="M78.167,45.918h25.307a1.75,1.75,0,0,0,0-3.5H78.167a1.75,1.75,0,0,0,0,3.5Z"/><path d="M78.167,54.028h25.307a1.75,1.75,0,0,0,0-3.5H78.167a1.75,1.75,0,0,0,0,3.5Z"/><path d="M78.167,62.139h25.307a1.75,1.75,0,0,0,0-3.5H78.167a1.75,1.75,0,0,0,0,3.5Z"/><path d="M78.167,70.25h25.307a1.75,1.75,0,0,0,0-3.5H78.167a1.75,1.75,0,0,0,0,3.5Z"/><path d="M78.167,78.361h25.307a1.75,1.75,0,0,0,0-3.5H78.167a1.75,1.75,0,0,0,0,3.5Z"/><path d="M78.167,86.471h25.307a1.75,1.75,0,0,0,0-3.5H78.167a1.75,1.75,0,0,0,0,3.5Z"/><path d="M78.167,94.582h25.307a1.75,1.75,0,0,0,0-3.5H78.167a1.75,1.75,0,0,0,0,3.5Z"/><path d="M58.833,76.917H15.5a1.75,1.75,0,0,0,0,3.5H58.833a1.75,1.75,0,0,0,0-3.5Z"/><path d="M58.833,85.027H15.5a1.75,1.75,0,0,0,0,3.5H58.833a1.75,1.75,0,1,0,0-3.5Z"/><path d="M58.833,93.138H15.5a1.75,1.75,0,0,0,0,3.5H58.833a1.75,1.75,0,0,0,0-3.5Z"/><path d="M58.833,101.249H15.5a1.75,1.75,0,0,0,0,3.5H58.833a1.75,1.75,0,0,0,0-3.5Z"/></g></svg>
