<svg fill="#FFF" height="512" viewBox="0 0 512 512" width="512" xmlns="http://www.w3.org/2000/svg"><g><path d="m476 424a28.031 28.031 0 0 0 28-28v-344a28.031 28.031 0 0 0 -28-28h-440a28.031 28.031 0 0 0 -28 28v344a28.031 28.031 0 0 0 28 28h212v17.38a24.067 24.067 0 0 0 -14.62 14.62h-217.38a8 8 0 0 0 0 16h217.38a23.99 23.99 0 0 0 45.24 0h217.38a8 8 0 0 0 0-16h-217.38a24.067 24.067 0 0 0 -14.62-14.62v-17.38zm-452-372a12.01 12.01 0 0 1 12-12h440a12.01 12.01 0 0 1 12 12v20h-464zm12 356a12.01 12.01 0 0 1 -12-12v-308h464v308a12.01 12.01 0 0 1 -12 12h-212v-8.23c75.7-4.16 136-67.05 136-143.77 0-79.4-64.6-144-144-144s-144 64.6-144 144c0 76.72 60.3 139.61 136 143.77v8.23zm275.26-176h70.47a128.007 128.007 0 0 1 0 48h-70.47q.72-11.79.74-24 0-12.195-.74-24zm-1.32-16c-2.32-21.94-6.55-42.09-12.45-58.83-3.88-10.97-8.05-19.38-12.31-25.81a128.477 128.477 0 0 1 92.41 84.64zm-16.06 0h-75.76c6.11-55.35 24.2-88 37.88-88s31.77 32.65 37.88 88zm-79.37-58.83c-5.9 16.74-10.13 36.89-12.45 58.83h-67.65a128.477 128.477 0 0 1 92.41-84.64c-4.26 6.43-8.43 14.84-12.31 25.81zm-13.77 74.83q-.72 11.79-.74 24 0 12.195.74 24h-70.47a128.007 128.007 0 0 1 0-48zm1.32 64c2.32 21.94 6.55 42.09 12.45 58.83 3.88 10.97 8.05 19.38 12.31 25.81a128.477 128.477 0 0 1 -92.41-84.64zm13.94-40q0-12.525.74-24h78.52q.72 11.475.74 24 0 12.525-.74 24h-78.52q-.72-11.475-.74-24zm81.49 98.83c5.9-16.74 10.13-36.89 12.45-58.83h67.65a128.477 128.477 0 0 1 -92.41 84.64c4.26-6.43 8.43-14.84 12.31-25.81zm-41.49 117.17a8 8 0 1 1 8-8 8.011 8.011 0 0 1 -8 8zm0-88c-13.68 0-31.77-32.65-37.88-88h75.76c-6.11 55.35-24.2 88-37.88 88z"/><path d="m40 64h8a8 8 0 0 0 0-16h-8a8 8 0 0 0 0 16z"/><path d="m72 64h8a8 8 0 0 0 0-16h-8a8 8 0 0 0 0 16z"/><path d="m104 64h8a8 8 0 0 0 0-16h-8a8 8 0 0 0 0 16z"/></g></svg>