<svg id="Icons" height="512" viewBox="0 0 74 74" width="512" xmlns="http://www.w3.org/2000/svg"><path d="m61 72h-48a1 1 0 0 1 -1-1v-58a1 1 0 0 1 1-1h10a1 1 0 0 1 0 2h-9v56h46v-56h-9a1 1 0 0 1 0-2h10a1 1 0 0 1 1 1v58a1 1 0 0 1 -1 1z"/><path d="m51 17.33h-28a1 1 0 0 1 -1-1v-6.66a1 1 0 0 1 1-1h7a7 7 0 0 1 14 0h7a1 1 0 0 1 1 1v6.66a1 1 0 0 1 -1 1zm-27-2h26v-4.66h-7a1 1 0 0 1 -1-1v-.67a5 5 0 0 0 -10 0v.67a1 1 0 0 1 -1 1h-7z"/><path d="m52.5 30h-31a1 1 0 0 1 0-2h31a1 1 0 0 1 0 2z"/><path d="m52.5 40h-31a1 1 0 0 1 0-2h31a1 1 0 0 1 0 2z"/><path d="m52.5 50h-31a1 1 0 0 1 0-2h31a1 1 0 0 1 0 2z"/><path d="m52.5 60h-31a1 1 0 0 1 0-2h31a1 1 0 0 1 0 2z"/></svg>