<svg fill="#FFF" id="Layer_1" enable-background="new 0 0 512 512" height="512" viewBox="0 0 512 512" width="512" xmlns="http://www.w3.org/2000/svg"><g><path d="m488 192h-28.31c-3.386 0-6.397-2.093-7.496-5.209-2.458-6.97-5.325-13.887-8.522-20.561-1.433-2.99-.786-6.607 1.608-9.001l20.022-20.023c9.378-9.376 9.384-24.561.001-33.941l-56.568-56.569c-9.357-9.357-24.584-9.357-33.941 0l-20.022 20.023c-2.396 2.396-6.014 3.041-9.002 1.609-6.67-3.195-13.588-6.063-20.561-8.522-3.116-1.099-5.209-4.112-5.209-7.497v-28.309c0-13.234-10.767-24-24-24h-80c-13.233 0-24 10.766-24 24v28.309c0 3.385-2.093 6.398-5.209 7.497-6.973 2.459-13.891 5.327-20.562 8.522-2.988 1.433-6.606.785-9-1.609l-20.023-20.023c-9.357-9.357-24.584-9.357-33.941 0l-56.567 56.568c-9.379 9.376-9.383 24.561-.001 33.941l20.023 20.023c2.395 2.394 3.041 6.011 1.608 9.001-3.197 6.673-6.064 13.591-8.522 20.561-1.099 3.115-4.11 5.208-7.496 5.208h-28.31c-13.233 0-24 10.766-24 24v80c0 13.234 10.767 24 24 24h28.31c3.386 0 6.397 2.093 7.496 5.209 2.458 6.97 5.325 13.887 8.522 20.561 1.433 2.99.786 6.607-1.608 9.001l-20.022 20.023c-9.378 9.376-9.383 24.56-.001 33.941l56.568 56.569c9.357 9.357 24.584 9.357 33.941 0l20.022-20.023c2.396-2.396 6.015-3.04 9.002-1.609 6.67 3.195 13.588 6.063 20.561 8.522 3.116 1.099 5.209 4.112 5.209 7.497v28.311c0 13.234 10.767 24 24 24h80c13.233 0 24-10.766 24-24v-28.309c0-3.385 2.093-6.398 5.209-7.497 6.973-2.459 13.891-5.327 20.562-8.522 2.988-1.432 6.606-.785 9 1.609l20.023 20.023c9.357 9.357 24.584 9.357 33.941 0l56.567-56.568c9.378-9.376 9.383-24.56.001-33.941l-20.023-20.023c-2.395-2.394-3.041-6.011-1.608-9.001 3.197-6.673 6.064-13.591 8.522-20.561 1.099-3.115 4.11-5.208 7.496-5.208h28.31c13.233 0 24-10.766 24-24v-80c0-13.236-10.767-24.002-24-24.002zm8 104c0 4.411-3.589 8-8 8h-28.31c-10.158 0-19.235 6.385-22.586 15.888-2.268 6.43-4.913 12.812-7.862 18.969-4.359 9.101-2.461 20.042 4.724 27.228l20.024 20.024c3.125 3.125 3.127 8.186-.001 11.313l-56.568 56.569c-3.119 3.119-8.193 3.119-11.313 0l-20.024-20.024c-7.185-7.185-18.125-9.084-27.227-4.724-6.154 2.948-12.537 5.594-18.971 7.863-9.501 3.35-15.886 12.427-15.886 22.585v28.309c0 4.411-3.589 8-8 8h-80c-4.411 0-8-3.589-8-8v-28.309c0-10.158-6.385-19.235-15.887-22.586-19.278-6.799-20.346-10.184-29.203-10.184-6.225 0-12.383 2.434-16.995 7.045l-20.023 20.023c-3.118 3.119-8.194 3.119-11.313 0l-56.569-56.568c-3.125-3.125-3.127-8.186.001-11.313l20.023-20.023c7.185-7.185 9.083-18.127 4.724-27.228-2.949-6.157-5.595-12.539-7.862-18.968-3.351-9.504-12.428-15.889-22.586-15.889h-28.31c-4.411 0-8-3.589-8-8v-80c0-4.411 3.589-8 8-8h28.31c10.158 0 19.235-6.385 22.586-15.888 2.268-6.43 4.913-12.812 7.862-18.969 4.359-9.101 2.461-20.042-4.724-27.228l-20.024-20.023c-3.125-3.125-3.127-8.186.001-11.313l56.568-56.569c3.119-3.119 8.193-3.119 11.313 0l20.024 20.024c7.186 7.186 18.127 9.085 27.227 4.724 6.154-2.948 12.537-5.594 18.971-7.863 9.501-3.351 15.886-12.428 15.886-22.586v-28.309c0-4.411 3.589-8 8-8h80c4.411 0 8 3.589 8 8v28.309c0 10.158 6.385 19.235 15.887 22.586 6.434 2.269 12.816 4.915 18.97 7.862 9.099 4.359 20.04 2.462 27.229-4.724l20.023-20.023c3.119-3.118 8.195-3.118 11.313 0l56.569 56.569c3.125 3.125 3.127 8.186-.001 11.313l-20.023 20.023c-7.185 7.185-9.083 18.127-4.724 27.228 2.949 6.157 5.595 12.539 7.862 18.968 3.35 9.504 12.427 15.889 22.585 15.889h28.31c4.411 0 8 3.589 8 8z"/><path d="m256 128c-70.579 0-128 57.42-128 128s57.421 128 128 128 128-57.42 128-128-57.421-128-128-128zm0 240c-61.757 0-112-50.243-112-112s50.243-112 112-112 112 50.243 112 112-50.243 112-112 112z"/></g></svg>