<svg viewBox="-46 0 512 512" xmlns="http://www.w3.org/2000/svg"><path d="m384.242188 385.359375v-159.566406c0-81.03125-55.007813-149.441407-129.640626-169.886719v-11.34375c0-24.570312-19.992187-44.5625-44.566406-44.5625h-.546875c-24.570312 0-44.5625 19.992188-44.5625 44.5625v10.46875c-76.304687 19.3125-132.9375 88.546875-132.9375 170.765625v161.40625c-19.621093 11.808594-31.988281 33.148437-31.988281 56.007813 0 2.652343 1.054688 5.195312 2.929688 7.070312s4.417968 2.929688 7.070312 2.929688h146.808594v5.832031c0 29.199219 23.753906 52.957031 52.953125 52.957031 29.203125 0 52.957031-23.757812 52.957031-52.957031v-5.828125h146.808594c5.519531 0 10-4.480469 10-10 0-24.152344-13.929688-46.605469-35.285156-57.855469zm-199.316407-335.691406v-5.105469c0-13.542969 11.019531-24.5625 24.5625-24.5625h.546875c13.542969 0 24.5625 11.019531 24.5625 24.5625v5.105469zm57.792969 409.375c0 18.171875-14.785156 32.957031-32.957031 32.957031s-32.953125-14.785156-32.953125-32.957031v-5.828125h65.910156zm10-25.828125h-231.5625c2.960938-12.683594 11.4375-23.792969 23.324219-30.089844h186.78125c5.523437 0 10-4.476562 10-10s-4.476563-10-10-10h-179.273438v-157.324219c0-86.089843 70.039063-156.128906 156.125-156.132812 86.089844 0 156.128907 70.039062 156.128907 156.125v165.953125c0 4.097656 2.5 7.78125 6.308593 9.292968 14.117188 5.613282 24.460938 17.898438 27.8125 32.171876h-145.644531zm0 0"/><path d="m269.761719 383.121094c-2.628907 0-5.207031 1.070312-7.070313 2.929687-1.859375 1.871094-2.929687 4.449219-2.929687 7.078125 0 2.632813 1.070312 5.199219 2.929687 7.070313 1.863282 1.859375 4.441406 2.921875 7.070313 2.921875 2.632812 0 5.210937-1.0625 7.070312-2.921875s2.929688-4.4375 2.929688-7.070313c0-2.640625-1.070313-5.207031-2.929688-7.078125-1.859375-1.859375-4.4375-2.929687-7.070312-2.929687zm0 0"/></svg>